<svg width="90" height="90" viewBox="0 0 90 90" fill="none" xmlns="http://www.w3.org/2000/svg">
<rect width="90" height="90" fill="white"/>
<path opacity="0.5" d="M42.5 0C29.4808 0 18.8889 10.6247 18.8889 23.6842C18.8889 36.7437 29.4808 47.3684 42.5 47.3684C55.5192 47.3684 66.1111 36.7437 66.1111 23.6842C66.1111 10.6247 55.5192 0 42.5 0ZM42.5 37.8947C34.6894 37.8947 28.3333 31.5189 28.3333 23.6842C28.3333 15.8495 34.6894 9.47368 42.5 9.47368C50.3106 9.47368 56.6667 15.8495 56.6667 23.6842C56.6667 31.5189 50.3106 37.8947 42.5 37.8947ZM85 90V85.2632C85 66.9837 70.1675 52.1053 51.9444 52.1053H33.0556C14.8278 52.1053 0 66.9837 0 85.2632V90H9.44444V85.2632C9.44444 72.2037 20.0364 61.5789 33.0556 61.5789H51.9444C64.9636 61.5789 75.5556 72.2037 75.5556 85.2632V90H85Z" fill="#D9EEE0"/>
</svg>
