<svg width="90" height="90" viewBox="0 0 90 90" fill="none" xmlns="http://www.w3.org/2000/svg">
<rect width="90" height="90" fill="white"/>
<path d="M45 71.25C63 71.25 67.5 54 67.5 54H22.5C22.5 54 27 71.25 45 71.25Z" fill="#ECF7EF"/>
<path opacity="0.5" d="M45 0C20.187 0 0 20.187 0 45C0 69.813 20.187 90 45 90C69.813 90 90 69.813 90 45C90 20.187 69.813 0 45 0ZM45 81C25.1505 81 9 64.8495 9 45C9 25.1505 25.1505 9 45 9C64.8495 9 81 25.1505 81 45C81 64.8495 64.8495 81 45 81Z" fill="#D9EEE0"/>
<path opacity="0.5" d="M49.6071 45.6932L58.8214 45.75C58.8767 43.5642 59.7152 40.9622 63.4286 40.9622C67.1419 40.9622 67.9804 43.5642 68.0357 45.6932H77.25C77.25 39.9876 73.5689 31.5 63.4286 31.5C53.2883 31.5 49.6071 39.9876 49.6071 45.6932ZM26.5714 40.9622C30.2848 40.9622 31.1233 43.5642 31.1786 45.6932H40.3929C40.3929 39.9876 36.7118 31.5 26.5714 31.5C16.4311 31.5 12.75 39.9876 12.75 45.6932L21.9643 45.75C22.0196 43.5642 22.8581 40.9622 26.5714 40.9622Z" fill="#D9EEE0"/>
</svg>
